<?xml version="1.0" encoding="UTF-8" standalone="no"?>
<!DOCTYPE svg PUBLIC "-//W3C//DTD SVG 1.1//EN" "http://www.w3.org/Graphics/SVG/1.1/DTD/svg11.dtd">
<svg width="100%" height="100%" viewBox="0 0 64 64" version="1.1" xmlns="http://www.w3.org/2000/svg" xmlns:xlink="http://www.w3.org/1999/xlink" xml:space="preserve" xmlns:serif="http://www.serif.com/" style="fill-rule:evenodd;clip-rule:evenodd;stroke-linecap:round;stroke-linejoin:round;stroke-miterlimit:1.5;">
    <g transform="matrix(1,0,0,1.20031,-3.83583,-7.92311)">
        <path d="M5.667,16.362L8.601,16.32L66.005,53.63L65.934,57.214L5.834,57.158L5.667,16.362Z" style="fill:white;stroke:black;stroke-width:0.23px;"/>
    </g>
    <g transform="matrix(1.00982,0.785797,-0.785797,1.00982,9.15896,-13.6582)">
        <g>
            <g transform="matrix(0.903978,-0.42758,0.450289,0.951989,-2.07922,17.0852)">
                <rect x="39" y="15" width="3" height="1" style="fill:white;"/>
            </g>
            <g transform="matrix(-0.903978,-0.42758,-0.450289,0.951989,66.0792,17.0852)">
                <rect x="39" y="15" width="3" height="1" style="fill:white;"/>
            </g>
            <g transform="matrix(0.947368,0,0,1,2.15789,-0.5)">
                <rect x="22" y="15" width="19" height="1" style="fill:white;"/>
            </g>
            <g transform="matrix(1,0,0,1,4.5,0)">
                <circle cx="22.5" cy="16.5" r="1.5" style="fill:white;stroke:black;stroke-width:0.08px;"/>
            </g>
            <g transform="matrix(1,0,0,1,14.5,0)">
                <circle cx="22.5" cy="16.5" r="1.5" style="fill:white;stroke:black;stroke-width:0.08px;"/>
            </g>
        </g>
    </g>
</svg>
