<?xml version="1.0" encoding="UTF-8" standalone="no"?><!DOCTYPE svg PUBLIC "-//W3C//DTD SVG 1.1//EN" "http://www.w3.org/Graphics/SVG/1.1/DTD/svg11.dtd"><svg width="100%" height="100%" viewBox="0 0 169 246" version="1.1" xmlns="http://www.w3.org/2000/svg" xmlns:xlink="http://www.w3.org/1999/xlink" xml:space="preserve" xmlns:serif="http://www.serif.com/" style="fill-rule:evenodd;clip-rule:evenodd;stroke-linecap:round;stroke-linejoin:round;stroke-miterlimit:1.5;"><rect id="Artboard1" x="0" y="0" width="166.751" height="243.983" style="fill:none;"/><g><g><path d="M117.753,192.015c-7.44,6.535 -8.461,14.194 -3.406,22.955l-18.095,-3.258l3.946,-22.683l17.555,2.986c-5.923,3.212 -9.489,18.222 -3.406,22.955c0.457,0.356 -18.095,-3.258 -18.095,-3.258l18.095,3.258c3.754,0.916 6.256,-3.767 7.485,-8.957c0.925,-3.907 0.704,-8.299 -1.314,-11.308c-0.995,-1.482 -0.82,-2.104 -2.765,-2.69Z" style="fill:#e904b7;stroke:#e904b7;stroke-width:0.42px;"/><path d="M118.445,192.579c2.648,0.46 4.139,5.765 3.327,11.841c-0.812,6.076 -3.622,10.636 -6.27,10.177c-2.649,-0.459 -4.139,-5.765 -3.327,-11.841c0.812,-6.076 3.621,-10.636 6.27,-10.177Z" style="fill:#ff73f4;stroke:#ff72f4;stroke-width:1.67px;"/><path d="M89.707,139.857c7.319,-12.984 19.249,-25.878 34.404,-37.638c7.218,-5.601 14.062,-12.739 18.001,-16.922c6.4,-6.796 13.027,-14.45 14.662,-23.143c2.929,-15.571 -3.843,-29.255 -16.406,-39.633c-7.665,-6.333 -22.623,-12.787 -32.62,-14.912c-9.259,-1.968 -20.061,-0.58 -27.361,2.161c-7.293,2.738 -12.677,8.387 -16.435,14.283c-4.054,6.361 -7.14,15.459 -7.89,23.88c-0.88,9.878 -0.697,23.648 2.61,35.391c3.323,11.794 11.045,24.16 17.323,35.376c6.088,10.876 15.393,22.512 20.344,31.917c4.176,7.932 6.94,15.217 9.365,24.518c2.658,10.194 2.397,26.207 -0.056,36.13c-2.277,9.207 -8.957,17.597 -16.553,22.192c-7.596,4.595 -18.735,5.551 -29.023,5.379c-15.452,-0.257 -29.739,-4.643 -38.544,-11.077c-8.498,-6.208 -12.984,-14.15 -13.759,-26.64c-0.804,-12.971 4.276,-20.741 8.678,-29.639c4.317,-8.725 11.299,-16.82 17.734,-23.748c6.114,-6.583 15.795,-13.407 20.874,-17.819c3.262,-2.835 6.8,-5.572 9.599,-8.656c2.769,-3.051 5.721,-7.584 7.197,-9.85" style="fill:#40008a;stroke:#000;stroke-width:5px;"/><path d="M90.187,140.707c0,0 -17.668,-26.849 -22.63,-35.745c-3.158,-5.662 -5.953,-11.721 -8.009,-17.735c-2.056,-6.014 -2.871,-12.485 -3.331,-18.849c-0.501,-6.936 -0.432,-16.104 0.325,-22.765c0.666,-5.866 1.717,-12.082 4.214,-17.201c2.498,-5.119 5.449,-8.886 8.936,-12.287c2.929,-2.855 6.525,-5.928 12.185,-8.078c4.688,-1.781 12.791,-2.342 17.473,-2.001c6.444,0.47 14.614,2.034 22.429,5.108c7.881,3.1 14.966,7.987 21.127,13.425c7.055,6.226 11.281,12.928 13.587,20.637c1.68,5.618 1.723,11.979 0.408,17.552c-1.314,5.574 -5.442,11.123 -9.106,15.892c-3.665,4.768 -8.434,9.208 -12.538,13.631c-4.181,4.505 -9.451,8.398 -14.301,12.628c-5.989,5.224 -11.142,9.991 -17.872,17.227c-5.011,5.388 -8.082,9.537 -12.897,18.561Z" style="fill:#5c21a6;stroke:#000;stroke-width:5px;"/><path d="M148.382,58.868c5.327,2.096 5.496,2.369 11.594,5.524c2.828,4.841 0.196,16.484 -7.199,18.479c-4.934,-1.283 -7.156,-2.202 -11.147,-3.737" style="fill:#e904b7;stroke:#e904b7;stroke-width:0.5px;"/><path d="M148.31,59.427c3.576,1.15 5.091,6.402 3.38,11.721c-1.71,5.319 -6.002,8.704 -9.578,7.554c-3.576,-1.15 -5.091,-6.402 -3.38,-11.721c1.71,-5.319 6.002,-8.704 9.578,-7.554Z" style="fill:#ff73f4;stroke:#ff72f4;stroke-width:1.67px;"/><path d="M113.422,78.818l11.613,-28.421l-25.274,-10.006l-11.281,28.484l24.942,9.943Z" style="fill:#525252;stroke:#525252;stroke-width:0.42px;"/><path d="M73.51,36.135l72.567,29.535c2.429,1.895 0.033,6.602 -2.372,6.365l-27.008,-10.018c-5.933,12.266 -23.051,6.538 -17.034,-7.391l-28.378,-11.497" style="fill:#6f6f6f;"/><path d="M61.118,23.559c5.328,2.096 5.496,2.369 11.594,5.524c2.829,4.841 0.196,16.484 -7.199,18.479c-4.934,-1.283 -7.156,-2.202 -11.146,-3.737" style="fill:#e904b7;stroke:#e904b7;stroke-width:0.5px;"/><path d="M61.047,24.118c3.576,1.15 5.09,6.402 3.38,11.721c-1.711,5.319 -6.003,8.704 -9.579,7.554c-3.576,-1.15 -5.09,-6.402 -3.38,-11.721c1.711,-5.319 6.003,-8.704 9.579,-7.554Z" style="fill:#ff73f4;stroke:#ff72f4;stroke-width:1.67px;"/><path d="M109.19,54.444c2.066,0.665 3.334,2.48 2.828,4.052c-0.505,1.572 -2.593,2.308 -4.66,1.643c-2.066,-0.664 -3.334,-2.48 -2.828,-4.051c0.505,-1.572 2.593,-2.308 4.66,-1.644Z" style="fill:#404040;"/><path d="M58.393,30.769c1.139,0.366 1.653,1.937 1.148,3.507c-0.504,1.569 -1.838,2.546 -2.977,2.18c-1.138,-0.366 -1.653,-1.937 -1.148,-3.507c0.504,-1.569 1.839,-2.546 2.977,-2.18Z" style="fill:#212121;"/><path d="M118.032,201.24c0.991,0.277 1.566,1.64 1.282,3.043c-0.284,1.404 -1.319,2.318 -2.31,2.042c-0.991,-0.277 -1.566,-1.641 -1.282,-3.044c0.284,-1.403 1.319,-2.318 2.31,-2.041Z" style="fill:#212121;"/><path d="M102.478,42.659c0.908,0.306 1.395,1.292 1.089,2.199c-0.307,0.907 -1.292,1.395 -2.2,1.089c-0.907,-0.307 -1.394,-1.292 -1.088,-2.2c0.307,-0.907 1.292,-1.395 2.199,-1.088Z" style="fill:#e804b6;"/><path d="M111.551,72.347c0.907,0.307 1.394,1.292 1.088,2.2c-0.307,0.907 -1.292,1.395 -2.199,1.088c-0.907,-0.306 -1.395,-1.292 -1.088,-2.199c0.306,-0.908 1.292,-1.395 2.199,-1.089Z" style="fill:#e804b6;"/><path d="M120.966,50.203c0.907,0.306 1.394,1.292 1.088,2.199c-0.307,0.908 -1.292,1.395 -2.199,1.089c-0.908,-0.307 -1.395,-1.292 -1.088,-2.2c0.306,-0.907 1.291,-1.395 2.199,-1.088Z" style="fill:#e804b6;"/><path d="M93.236,65.388c0.908,0.306 1.395,1.292 1.089,2.199c-0.307,0.907 -1.292,1.395 -2.2,1.089c-0.907,-0.307 -1.394,-1.292 -1.088,-2.2c0.307,-0.907 1.292,-1.395 2.199,-1.088Z" style="fill:#e804b6;"/><path d="M66.245,200.481c1.313,0.094 2.307,1.187 2.218,2.439c-0.09,1.253 -1.229,2.193 -2.542,2.099c-1.314,-0.094 -2.308,-1.186 -2.218,-2.439c0.089,-1.252 1.228,-2.193 2.542,-2.099Z" style="fill:#e804b6;"/><path d="M47.699,197.103c1.314,0.094 2.308,1.187 2.218,2.439c-0.089,1.252 -1.228,2.193 -2.542,2.099c-1.313,-0.094 -2.307,-1.187 -2.218,-2.439c0.09,-1.252 1.229,-2.193 2.542,-2.099Z" style="fill:#e804b6;"/><path d="M51.39,177.548c1.314,0.094 2.308,1.186 2.218,2.439c-0.089,1.252 -1.228,2.193 -2.542,2.099c-1.313,-0.094 -2.307,-1.187 -2.218,-2.439c0.09,-1.253 1.229,-2.193 2.542,-2.099Z" style="fill:#e804b6;"/><path d="M69.514,179.794c1.314,0.094 2.307,1.187 2.218,2.439c-0.09,1.253 -1.229,2.193 -2.542,2.099c-1.314,-0.094 -2.307,-1.187 -2.218,-2.439c0.09,-1.252 1.229,-2.193 2.542,-2.099Z" style="fill:#e804b6;"/></g></g></svg>