<?xml version="1.0" encoding="UTF-8" standalone="no"?>
<!DOCTYPE svg PUBLIC "-//W3C//DTD SVG 1.1//EN" "http://www.w3.org/Graphics/SVG/1.1/DTD/svg11.dtd">
<svg width="100%" height="100%" viewBox="0 0 64 64" version="1.1" xmlns="http://www.w3.org/2000/svg" xmlns:xlink="http://www.w3.org/1999/xlink" xml:space="preserve" xmlns:serif="http://www.serif.com/" style="fill-rule:evenodd;clip-rule:evenodd;stroke-linecap:round;stroke-linejoin:round;stroke-miterlimit:1.5;">
    <g transform="matrix(1,0,0,1.0941,-4.8288,-0.846241)">
        <path d="M5.653,11.793L10.054,11.77C9.926,22.299 19.033,37.674 35.829,37.646C52.536,37.618 61.327,22.29 61.49,11.629L66.005,11.606L65.934,57.214L5.834,57.158L5.653,11.793Z" style="fill:white;stroke:black;stroke-width:0.24px;"/>
    </g>
    <g transform="matrix(1.19392,-0.460179,0.460179,1.19392,-31.5694,4.65759)">
        <g transform="matrix(0.903978,-0.42758,0.450289,0.951989,-2.07922,17.0852)">
            <rect x="39" y="15" width="3" height="1" style="fill:white;"/>
        </g>
        <g transform="matrix(-0.903978,-0.42758,-0.450289,0.951989,66.0792,17.0852)">
            <rect x="39" y="15" width="3" height="1" style="fill:white;"/>
        </g>
        <g transform="matrix(0.947368,0,0,1,2.15789,-0.5)">
            <rect x="22" y="15" width="19" height="1" style="fill:white;"/>
        </g>
        <g transform="matrix(1,0,0,1,4.5,0)">
            <circle cx="22.5" cy="16.5" r="1.5" style="fill:white;stroke:black;stroke-width:0.08px;"/>
        </g>
        <g transform="matrix(1,0,0,1,14.5,0)">
            <circle cx="22.5" cy="16.5" r="1.5" style="fill:white;stroke:black;stroke-width:0.08px;"/>
        </g>
    </g>
</svg>
