<?xml version="1.0" encoding="UTF-8" standalone="no"?>
<!DOCTYPE svg PUBLIC "-//W3C//DTD SVG 1.1//EN" "http://www.w3.org/Graphics/SVG/1.1/DTD/svg11.dtd">
<svg width="100%" height="100%" viewBox="0 0 64 64" version="1.1" xmlns="http://www.w3.org/2000/svg" xmlns:xlink="http://www.w3.org/1999/xlink" xml:space="preserve" xmlns:serif="http://www.serif.com/" style="fill-rule:evenodd;clip-rule:evenodd;stroke-linecap:round;stroke-linejoin:round;stroke-miterlimit:1.5;">
    <g transform="matrix(1,0,0,1,14.5,6.98099)">
        <rect x="15" y="26" width="5" height="1.962" style="fill:white;stroke:black;stroke-width:0.1px;"/>
    </g>
    <g transform="matrix(1,0,0,1,40,6.98099)">
        <rect x="15" y="26" width="5" height="1.962" style="fill:white;stroke:black;stroke-width:0.1px;"/>
    </g>
    <g transform="matrix(1,0,0,1,-11,6.98099)">
        <rect x="15" y="26" width="5" height="1.962" style="fill:white;stroke:black;stroke-width:0.1px;"/>
    </g>
    <g transform="matrix(1,0,0,1.66512,0,-12.5981)">
        <rect x="2" y="27.962" width="60" height="16.538" style="fill:white;stroke:black;stroke-width:0.07px;"/>
    </g>
    <g transform="matrix(3,0,0,1.30057,-13,-2.10971)">
        <rect x="6" y="17" width="1" height="9.981" style="fill:white;stroke:black;stroke-width:0.04px;"/>
    </g>
    <g transform="matrix(3,0,0,1.30057,12.5,-2.10971)">
        <rect x="6" y="17" width="1" height="9.981" style="fill:white;stroke:black;stroke-width:0.04px;"/>
    </g>
    <g transform="matrix(3,0,0,1.30057,38,-2.10971)">
        <rect x="6" y="17" width="1" height="9.981" style="fill:white;stroke:black;stroke-width:0.04px;"/>
    </g>
    <g transform="matrix(1,0,0,1.5,0,-8.5)">
        <rect x="3" y="17" width="58" height="2" style="fill:white;stroke:black;stroke-width:0.08px;"/>
    </g>
    <g transform="matrix(1.14845,0.564151,-0.564151,1.14845,1.17695,-23.3274)">
        <g transform="matrix(0.903978,-0.42758,0.450289,0.951989,-2.07922,17.0852)">
            <rect x="39" y="15" width="3" height="1" style="fill:white;"/>
        </g>
        <g transform="matrix(-0.903978,-0.42758,-0.450289,0.951989,66.0792,17.0852)">
            <rect x="39" y="15" width="3" height="1" style="fill:white;"/>
        </g>
        <g transform="matrix(0.947368,0,0,1,2.15789,-0.5)">
            <rect x="22" y="15" width="19" height="1" style="fill:white;"/>
        </g>
        <g transform="matrix(1,0,0,1,4.5,0)">
            <circle cx="22.5" cy="16.5" r="1.5" style="fill:white;stroke:black;stroke-width:0.08px;"/>
        </g>
        <g transform="matrix(1,0,0,1,14.5,0)">
            <circle cx="22.5" cy="16.5" r="1.5" style="fill:white;stroke:black;stroke-width:0.08px;"/>
        </g>
    </g>
</svg>
