<?xml version="1.0" encoding="UTF-8" standalone="no"?>
<svg
   xmlns:dc="http://purl.org/dc/elements/1.1/"
   xmlns:cc="http://creativecommons.org/ns#"
   xmlns:rdf="http://www.w3.org/1999/02/22-rdf-syntax-ns#"
   xmlns:svg="http://www.w3.org/2000/svg"
   xmlns="http://www.w3.org/2000/svg"
   xmlns:sodipodi="http://sodipodi.sourceforge.net/DTD/sodipodi-0.dtd"
   xmlns:inkscape="http://www.inkscape.org/namespaces/inkscape"
   width="250"
   height="250"
   viewBox="0 0 250 250"
   version="1.1"
   xml:space="preserve"
   style="clip-rule:evenodd;fill-rule:evenodd;stroke-linecap:round;stroke-linejoin:round;stroke-miterlimit:1.5"
   id="svg917"
   sodipodi:docname="sk8spots_ICON_square.svg"
   inkscape:version="0.92.3 (2405546, 2018-03-11)"
   inkscape:export-filename="D:\Carlos Rafael\Faculdade\ESPM\Labs\Sk8Spots\public\images\sk8spots_ICON_square.png"
   inkscape:export-xdpi="192"
   inkscape:export-ydpi="192"><metadata
     id="metadata923"><rdf:RDF><cc:Work
         rdf:about=""><dc:format>image/svg+xml</dc:format><dc:type
           rdf:resource="http://purl.org/dc/dcmitype/StillImage" /><dc:title></dc:title></cc:Work></rdf:RDF></metadata><defs
     id="defs921" /><sodipodi:namedview
     pagecolor="#ffffff"
     bordercolor="#666666"
     borderopacity="1"
     objecttolerance="10"
     gridtolerance="10"
     guidetolerance="10"
     inkscape:pageopacity="0"
     inkscape:pageshadow="2"
     inkscape:window-width="1366"
     inkscape:window-height="705"
     id="namedview919"
     showgrid="false"
     fit-margin-top="0"
     fit-margin-left="0"
     fit-margin-right="0"
     fit-margin-bottom="0"
     inkscape:zoom="2.1788618"
     inkscape:cx="84.5"
     inkscape:cy="120.983"
     inkscape:window-x="-8"
     inkscape:window-y="-8"
     inkscape:window-maximized="1"
     inkscape:current-layer="svg917" /><rect
     id="Artboard1"
     x="0"
     y="6.0169983"
     width="166.75101"
     height="243.983"
     style="fill:none" /><g
     id="g915"
     transform="translate(41.735529,2.6032056)"><g
       id="g913"><path
         d="m 117.753,192.015 c -7.44,6.535 -8.461,14.194 -3.406,22.955 l -18.095,-3.258 3.946,-22.683 17.555,2.986 c -5.923,3.212 -9.489,18.222 -3.406,22.955 0.457,0.356 -18.095,-3.258 -18.095,-3.258 l 18.095,3.258 c 3.754,0.916 6.256,-3.767 7.485,-8.957 0.925,-3.907 0.704,-8.299 -1.314,-11.308 -0.995,-1.482 -0.82,-2.104 -2.765,-2.69 z"
         style="fill:#e904b7;stroke:#e904b7;stroke-width:0.41999999px"
         id="path871"
         inkscape:connector-curvature="0" /><path
         d="m 118.445,192.579 c 2.648,0.46 4.139,5.765 3.327,11.841 -0.812,6.076 -3.622,10.636 -6.27,10.177 -2.649,-0.459 -4.139,-5.765 -3.327,-11.841 0.812,-6.076 3.621,-10.636 6.27,-10.177 z"
         style="fill:#ff73f4;stroke:#ff72f4;stroke-width:1.66999996px"
         id="path873"
         inkscape:connector-curvature="0" /><path
         d="m 89.707,139.857 c 7.319,-12.984 19.249,-25.878 34.404,-37.638 7.218,-5.601 14.062,-12.739 18.001,-16.922 6.4,-6.796 13.027,-14.45 14.662,-23.143 C 159.703,46.583 152.931,32.899 140.368,22.521 132.703,16.188 117.745,9.734 107.748,7.609 98.489,5.641 87.687,7.029 80.387,9.77 73.094,12.508 67.71,18.157 63.952,24.053 c -4.054,6.361 -7.14,15.459 -7.89,23.88 -0.88,9.878 -0.697,23.648 2.61,35.391 3.323,11.794 11.045,24.16 17.323,35.376 6.088,10.876 15.393,22.512 20.344,31.917 4.176,7.932 6.94,15.217 9.365,24.518 2.658,10.194 2.397,26.207 -0.056,36.13 -2.277,9.207 -8.957,17.597 -16.553,22.192 -7.596,4.595 -18.735,5.551 -29.023,5.379 -15.452,-0.257 -29.739,-4.643 -38.544,-11.077 -8.498,-6.208 -12.984,-14.15 -13.759,-26.64 -0.804,-12.971 4.276,-20.741 8.678,-29.639 4.317,-8.725 11.299,-16.82 17.734,-23.748 6.114,-6.583 15.795,-13.407 20.874,-17.819 3.262,-2.835 6.8,-5.572 9.599,-8.656 2.769,-3.051 5.721,-7.584 7.197,-9.85"
         style="fill:#40008a;stroke:#000000;stroke-width:5px"
         id="path875"
         inkscape:connector-curvature="0" /><path
         d="m 90.187,140.707 c 0,0 -17.668,-26.849 -22.63,-35.745 C 64.399,99.3 61.604,93.241 59.548,87.227 57.492,81.213 56.677,74.742 56.217,68.378 55.716,61.442 55.785,52.274 56.542,45.613 c 0.666,-5.866 1.717,-12.082 4.214,-17.201 2.498,-5.119 5.449,-8.886 8.936,-12.287 2.929,-2.855 6.525,-5.928 12.185,-8.078 4.688,-1.781 12.791,-2.342 17.473,-2.001 6.444,0.47 14.614,2.034 22.429,5.108 7.881,3.1 14.966,7.987 21.127,13.425 7.055,6.226 11.281,12.928 13.587,20.637 1.68,5.618 1.723,11.979 0.408,17.552 -1.314,5.574 -5.442,11.123 -9.106,15.892 -3.665,4.768 -8.434,9.208 -12.538,13.631 -4.181,4.505 -9.451,8.398 -14.301,12.628 -5.989,5.224 -11.142,9.991 -17.872,17.227 -5.011,5.388 -8.082,9.537 -12.897,18.561 z"
         style="fill:#5c21a6;stroke:#000000;stroke-width:5px"
         id="path877"
         inkscape:connector-curvature="0" /><path
         d="m 148.382,58.868 c 5.327,2.096 5.496,2.369 11.594,5.524 2.828,4.841 0.196,16.484 -7.199,18.479 -4.934,-1.283 -7.156,-2.202 -11.147,-3.737"
         style="fill:#e904b7;stroke:#e904b7;stroke-width:0.5px"
         id="path879"
         inkscape:connector-curvature="0" /><path
         d="m 148.31,59.427 c 3.576,1.15 5.091,6.402 3.38,11.721 -1.71,5.319 -6.002,8.704 -9.578,7.554 -3.576,-1.15 -5.091,-6.402 -3.38,-11.721 1.71,-5.319 6.002,-8.704 9.578,-7.554 z"
         style="fill:#ff73f4;stroke:#ff72f4;stroke-width:1.66999996px"
         id="path881"
         inkscape:connector-curvature="0" /><path
         d="M 113.422,78.818 125.035,50.397 99.761,40.391 88.48,68.875 Z"
         style="fill:#525252;stroke:#525252;stroke-width:0.41999999px"
         id="path883"
         inkscape:connector-curvature="0" /><path
         d="m 73.51,36.135 72.567,29.535 c 2.429,1.895 0.033,6.602 -2.372,6.365 L 116.697,62.017 C 110.764,74.283 93.646,68.555 99.663,54.626 L 71.285,43.129"
         style="fill:#6f6f6f"
         id="path885"
         inkscape:connector-curvature="0" /><path
         d="m 61.118,23.559 c 5.328,2.096 5.496,2.369 11.594,5.524 2.829,4.841 0.196,16.484 -7.199,18.479 -4.934,-1.283 -7.156,-2.202 -11.146,-3.737"
         style="fill:#e904b7;stroke:#e904b7;stroke-width:0.5px"
         id="path887"
         inkscape:connector-curvature="0" /><path
         d="m 61.047,24.118 c 3.576,1.15 5.09,6.402 3.38,11.721 -1.711,5.319 -6.003,8.704 -9.579,7.554 -3.576,-1.15 -5.09,-6.402 -3.38,-11.721 1.711,-5.319 6.003,-8.704 9.579,-7.554 z"
         style="fill:#ff73f4;stroke:#ff72f4;stroke-width:1.66999996px"
         id="path889"
         inkscape:connector-curvature="0" /><path
         d="m 109.19,54.444 c 2.066,0.665 3.334,2.48 2.828,4.052 -0.505,1.572 -2.593,2.308 -4.66,1.643 -2.066,-0.664 -3.334,-2.48 -2.828,-4.051 0.505,-1.572 2.593,-2.308 4.66,-1.644 z"
         style="fill:#404040"
         id="path891"
         inkscape:connector-curvature="0" /><path
         d="m 58.393,30.769 c 1.139,0.366 1.653,1.937 1.148,3.507 -0.504,1.569 -1.838,2.546 -2.977,2.18 -1.138,-0.366 -1.653,-1.937 -1.148,-3.507 0.504,-1.569 1.839,-2.546 2.977,-2.18 z"
         style="fill:#212121"
         id="path893"
         inkscape:connector-curvature="0" /><path
         d="m 118.032,201.24 c 0.991,0.277 1.566,1.64 1.282,3.043 -0.284,1.404 -1.319,2.318 -2.31,2.042 -0.991,-0.277 -1.566,-1.641 -1.282,-3.044 0.284,-1.403 1.319,-2.318 2.31,-2.041 z"
         style="fill:#212121"
         id="path895"
         inkscape:connector-curvature="0" /><path
         d="m 102.478,42.659 c 0.908,0.306 1.395,1.292 1.089,2.199 -0.307,0.907 -1.292,1.395 -2.2,1.089 -0.907,-0.307 -1.394,-1.292 -1.088,-2.2 0.307,-0.907 1.292,-1.395 2.199,-1.088 z"
         style="fill:#e804b6"
         id="path897"
         inkscape:connector-curvature="0" /><path
         d="m 111.551,72.347 c 0.907,0.307 1.394,1.292 1.088,2.2 -0.307,0.907 -1.292,1.395 -2.199,1.088 -0.907,-0.306 -1.395,-1.292 -1.088,-2.199 0.306,-0.908 1.292,-1.395 2.199,-1.089 z"
         style="fill:#e804b6"
         id="path899"
         inkscape:connector-curvature="0" /><path
         d="m 120.966,50.203 c 0.907,0.306 1.394,1.292 1.088,2.199 -0.307,0.908 -1.292,1.395 -2.199,1.089 -0.908,-0.307 -1.395,-1.292 -1.088,-2.2 0.306,-0.907 1.291,-1.395 2.199,-1.088 z"
         style="fill:#e804b6"
         id="path901"
         inkscape:connector-curvature="0" /><path
         d="m 93.236,65.388 c 0.908,0.306 1.395,1.292 1.089,2.199 -0.307,0.907 -1.292,1.395 -2.2,1.089 -0.907,-0.307 -1.394,-1.292 -1.088,-2.2 0.307,-0.907 1.292,-1.395 2.199,-1.088 z"
         style="fill:#e804b6"
         id="path903"
         inkscape:connector-curvature="0" /><path
         d="m 66.245,200.481 c 1.313,0.094 2.307,1.187 2.218,2.439 -0.09,1.253 -1.229,2.193 -2.542,2.099 -1.314,-0.094 -2.308,-1.186 -2.218,-2.439 0.089,-1.252 1.228,-2.193 2.542,-2.099 z"
         style="fill:#e804b6"
         id="path905"
         inkscape:connector-curvature="0" /><path
         d="m 47.699,197.103 c 1.314,0.094 2.308,1.187 2.218,2.439 -0.089,1.252 -1.228,2.193 -2.542,2.099 -1.313,-0.094 -2.307,-1.187 -2.218,-2.439 0.09,-1.252 1.229,-2.193 2.542,-2.099 z"
         style="fill:#e804b6"
         id="path907"
         inkscape:connector-curvature="0" /><path
         d="m 51.39,177.548 c 1.314,0.094 2.308,1.186 2.218,2.439 -0.089,1.252 -1.228,2.193 -2.542,2.099 -1.313,-0.094 -2.307,-1.187 -2.218,-2.439 0.09,-1.253 1.229,-2.193 2.542,-2.099 z"
         style="fill:#e804b6"
         id="path909"
         inkscape:connector-curvature="0" /><path
         d="m 69.514,179.794 c 1.314,0.094 2.307,1.187 2.218,2.439 -0.09,1.253 -1.229,2.193 -2.542,2.099 -1.314,-0.094 -2.307,-1.187 -2.218,-2.439 0.09,-1.252 1.229,-2.193 2.542,-2.099 z"
         style="fill:#e804b6"
         id="path911"
         inkscape:connector-curvature="0" /></g></g></svg>