<?xml version="1.0" encoding="UTF-8" standalone="no"?><!DOCTYPE svg PUBLIC "-//W3C//DTD SVG 1.1//EN" "http://www.w3.org/Graphics/SVG/1.1/DTD/svg11.dtd"><svg width="100%" height="100%" viewBox="0 0 79 107" version="1.1" xmlns="http://www.w3.org/2000/svg" xmlns:xlink="http://www.w3.org/1999/xlink" xml:space="preserve" xmlns:serif="http://www.serif.com/" style="fill-rule:evenodd;clip-rule:evenodd;stroke-linecap:round;stroke-linejoin:round;stroke-miterlimit:1.5;"><path d="M39.063,109.375c-0.001,0 -39.063,-49.219 -39.063,-70.313c0,-21.559 17.503,-39.062 39.063,-39.062c21.559,0 39.062,17.503 39.062,39.063c0,21.093 -39.063,70.312 -39.063,70.312Z" style="fill:#40008a;"/><g><path d="M12.472,18.869l3.932,-0.021c-0.114,9.57 8.022,23.544 23.027,23.518c14.925,-0.025 22.779,-13.956 22.925,-23.646l4.033,-0.021l-0.064,41.454l-53.691,-0.052l-0.162,-41.232Z" style="fill:#fff;stroke:#fff;stroke-width:0.42px;"/><g><path d="M34.527,9.041l-2.365,2.483l0.872,0.83l2.365,-2.483l-0.872,-0.83Z" style="fill:#fff;"/><path d="M11.825,17.791l3.42,0.253l-0.089,1.201l-3.42,-0.254l0.089,-1.2Z" style="fill:#fff;"/><path d="M33.225,10.882l-19.199,7.4l0.411,1.066l19.199,-7.399l-0.411,-1.067Z" style="fill:#fff;"/><path d="M18.498,17.171c0.883,-0.341 1.876,0.1 2.217,0.983c0.34,0.883 -0.101,1.876 -0.984,2.217c-0.883,0.34 -1.876,-0.101 -2.216,-0.984c-0.34,-0.883 0.1,-1.876 0.983,-2.216Z" style="fill:#fff;stroke:#fff;stroke-width:0.31px;"/><path d="M29.164,13.06c0.883,-0.341 1.876,0.1 2.217,0.983c0.34,0.883 -0.1,1.876 -0.983,2.216c-0.883,0.341 -1.877,-0.1 -2.217,-0.983c-0.34,-0.883 0.1,-1.876 0.983,-2.216Z" style="fill:#fff;stroke:#fff;stroke-width:0.31px;"/></g></g></svg>