<?xml version="1.0" encoding="UTF-8" standalone="no"?><!DOCTYPE svg PUBLIC "-//W3C//DTD SVG 1.1//EN" "http://www.w3.org/Graphics/SVG/1.1/DTD/svg11.dtd"><svg width="100%" height="100%" viewBox="0 0 79 107" version="1.1" xmlns="http://www.w3.org/2000/svg" xmlns:xlink="http://www.w3.org/1999/xlink" xml:space="preserve" xmlns:serif="http://www.serif.com/" style="fill-rule:evenodd;clip-rule:evenodd;stroke-linecap:round;stroke-linejoin:round;stroke-miterlimit:1.5;"><path d="M39.063,109.375c-0.001,0 -39.063,-49.219 -39.063,-70.313c0,-21.559 17.503,-39.062 39.063,-39.062c21.559,0 39.062,17.503 39.062,39.063c0,21.093 -39.063,70.312 -39.063,70.312Z" style="fill:#40008a;"/><g><path d="M11.972,16.898l2.635,-0.045l51.546,40.214l-0.064,3.863l-53.967,-0.061l-0.15,-43.971Z" style="fill:#fff;"/><g><g><path d="M47.759,36.359l-3.364,-0.75l-0.264,1.181l3.365,0.75l0.263,-1.181Z" style="fill:#fff;"/><path d="M28.459,21.34l1.554,3.077l-1.08,0.546l-1.554,-3.077l1.08,-0.546Z" style="fill:#fff;"/><path d="M45.499,36.192l-16.322,-12.701l-0.706,0.906l16.322,12.701l0.706,-0.906Z" style="fill:#fff;"/><path d="M32.451,26.766c0.751,0.585 0.886,1.668 0.302,2.419c-0.585,0.751 -1.668,0.886 -2.419,0.302c-0.751,-0.584 -0.886,-1.668 -0.302,-2.419c0.584,-0.751 1.668,-0.886 2.419,-0.302Z" style="fill:#fff;stroke:#fff;stroke-width:0.31px;"/><path d="M41.519,33.823c0.75,0.584 0.885,1.667 0.301,2.418c-0.584,0.751 -1.668,0.886 -2.418,0.302c-0.751,-0.584 -0.886,-1.668 -0.302,-2.419c0.584,-0.75 1.668,-0.886 2.419,-0.301Z" style="fill:#fff;stroke:#fff;stroke-width:0.31px;"/></g></g></g></svg>