<?xml version="1.0" encoding="UTF-8" standalone="no"?><!DOCTYPE svg PUBLIC "-//W3C//DTD SVG 1.1//EN" "http://www.w3.org/Graphics/SVG/1.1/DTD/svg11.dtd"><svg width="100%" height="100%" viewBox="0 0 79 107" version="1.1" xmlns="http://www.w3.org/2000/svg" xmlns:xlink="http://www.w3.org/1999/xlink" xml:space="preserve" xmlns:serif="http://www.serif.com/" style="fill-rule:evenodd;clip-rule:evenodd;stroke-linecap:round;stroke-linejoin:round;stroke-miterlimit:1.5;"><path d="M39.063,109.375c-0.001,0 -39.063,-49.219 -39.063,-70.313c0,-21.559 17.503,-39.062 39.063,-39.062c21.559,0 39.062,17.503 39.062,39.063c0,21.093 -39.063,70.312 -39.063,70.312Z" style="fill:#40008a;"/><g><g><rect x="36.849" y="34.732" width="4.427" height="1.737" style="fill:#fff;stroke:#000;stroke-width:0.31px;"/><rect x="59.427" y="34.732" width="4.427" height="1.737" style="fill:#fff;stroke:#000;stroke-width:0.31px;"/><rect x="14.271" y="34.732" width="4.427" height="1.737" style="fill:#fff;stroke:#000;stroke-width:0.31px;"/><rect x="12.5" y="35.6" width="53.125" height="24.383" style="fill:#fff;stroke:#000;stroke-width:0.31px;"/><rect x="15.156" y="23.238" width="2.656" height="11.494" style="fill:#fff;stroke:#000;stroke-width:0.31px;"/><rect x="37.734" y="23.238" width="2.656" height="11.494" style="fill:#fff;stroke:#000;stroke-width:0.31px;"/><rect x="60.313" y="23.238" width="2.656" height="11.494" style="fill:#fff;stroke:#000;stroke-width:0.31px;"/><rect x="13.385" y="20.582" width="51.354" height="2.656" style="fill:#fff;stroke:#000;stroke-width:0.31px;"/></g><g><path d="M48.436,19.808l-3.399,-0.05l-0.018,1.193l3.399,0.05l0.018,-1.193Z" style="fill:#fff;"/><path d="M26.792,9.177l2.117,2.659l-0.933,0.743l-2.117,-2.659l0.933,-0.743Z" style="fill:#fff;"/><path d="M46.22,20.1l-18.304,-8.991l-0.499,1.016l18.303,8.992l0.5,-1.017Z" style="fill:#fff;"/><path d="M31.734,13.615c0.842,0.414 1.189,1.433 0.776,2.275c-0.414,0.841 -1.433,1.189 -2.275,0.776c-0.842,-0.414 -1.189,-1.433 -0.776,-2.275c0.414,-0.842 1.433,-1.189 2.275,-0.776Z" style="fill:#fff;stroke:#fff;stroke-width:0.31px;"/><path d="M41.902,18.61c0.842,0.414 1.19,1.433 0.776,2.275c-0.413,0.842 -1.432,1.189 -2.274,0.776c-0.842,-0.414 -1.19,-1.433 -0.776,-2.275c0.413,-0.842 1.433,-1.189 2.274,-0.776Z" style="fill:#fff;stroke:#fff;stroke-width:0.31px;"/></g></g></svg>