<?xml version="1.0" encoding="UTF-8" standalone="no"?>
<svg
   xmlns:dc="http://purl.org/dc/elements/1.1/"
   xmlns:cc="http://creativecommons.org/ns#"
   xmlns:rdf="http://www.w3.org/1999/02/22-rdf-syntax-ns#"
   xmlns:svg="http://www.w3.org/2000/svg"
   xmlns="http://www.w3.org/2000/svg"
   xmlns:sodipodi="http://sodipodi.sourceforge.net/DTD/sodipodi-0.dtd"
   xmlns:inkscape="http://www.inkscape.org/namespaces/inkscape"
   width="100%"
   height="100%"
   viewBox="0 0 79 107"
   version="1.1"
   xml:space="preserve"
   style="fill-rule:evenodd;clip-rule:evenodd;stroke-linecap:round;stroke-linejoin:round;stroke-miterlimit:1.5;"
   id="svg863"
   sodipodi:docname="shop_marker.svg"
   inkscape:version="0.92.3 (2405546, 2018-03-11)"><metadata
     id="metadata869"><rdf:RDF><cc:Work
         rdf:about=""><dc:format>image/svg+xml</dc:format><dc:type
           rdf:resource="http://purl.org/dc/dcmitype/StillImage" /></cc:Work></rdf:RDF></metadata><defs
     id="defs867" /><sodipodi:namedview
     pagecolor="#ffffff"
     bordercolor="#666666"
     borderopacity="1"
     objecttolerance="10"
     gridtolerance="10"
     guidetolerance="10"
     inkscape:pageopacity="0"
     inkscape:pageshadow="2"
     inkscape:window-width="1366"
     inkscape:window-height="705"
     id="namedview865"
     showgrid="false"
     inkscape:zoom="5.0093458"
     inkscape:cx="2.9682836"
     inkscape:cy="53.5"
     inkscape:window-x="-8"
     inkscape:window-y="-8"
     inkscape:window-maximized="1"
     inkscape:current-layer="svg863" /><path
     d="M39.063,109.375c-0.001,0 -39.063,-49.219 -39.063,-70.313c0,-21.559 17.503,-39.062 39.063,-39.062c21.559,0 39.062,17.503 39.062,39.063c0,21.093 -39.063,70.312 -39.063,70.312Z"
     style="fill:#40008a;"
     id="path843" /><path
     inkscape:connector-curvature="0"
     id="path1446"
     style="font-style:normal;font-weight:normal;font-size:medium;line-height:1.25;font-family:sans-serif;letter-spacing:0px;word-spacing:0px;fill:#ffffff;fill-opacity:1;stroke:none;stroke-width:3.10969305"
     d="m 32.710285,57.049744 c 0,-2.267486 -1.878774,-4.146257 -4.146256,-4.146257 -2.267486,0 -4.14626,1.878771 -4.14626,4.146257 0,2.267485 1.878774,4.146256 4.14626,4.146256 2.267482,0 4.146256,-1.878771 4.146256,-4.146256 z m 29.023802,0 c 0,-2.267486 -1.878774,-4.146257 -4.146257,-4.146257 -2.267485,0 -4.146256,1.878771 -4.146256,4.146257 0,2.267485 1.878771,4.146256 4.146256,4.146256 2.267483,0 4.146257,-1.878771 4.146257,-4.146256 z m 4.146256,-35.243188 c 0,-1.133741 -0.939385,-2.07313 -2.073127,-2.07313 H 24.903659 C 24.579735,18.178583 24.514947,15.58717 22.344643,15.58717 h -8.292516 c -1.133742,0 -2.073127,0.939388 -2.073127,2.07313 0,1.133741 0.939385,2.073126 2.073127,2.073126 h 6.608098 l 5.733496,26.659141 c -0.518283,1.004173 -1.975952,3.433618 -1.975952,4.43779 0,1.133742 0.939389,2.07313 2.07313,2.07313 h 33.170058 c 1.133744,0 2.07313,-0.939388 2.07313,-2.07313 0,-1.133741 -0.939386,-2.073126 -2.07313,-2.073126 H 29.859732 c 0.323928,-0.647855 0.777424,-1.3281 0.777424,-2.07313 0,-0.777423 -0.259131,-1.522453 -0.421103,-2.267486 l 33.81791,-3.9519 c 1.036566,-0.129581 1.84638,-1.036564 1.84638,-2.07313 z" /></svg>