<?xml version="1.0" encoding="UTF-8" standalone="no"?>
<svg
   xmlns:dc="http://purl.org/dc/elements/1.1/"
   xmlns:cc="http://creativecommons.org/ns#"
   xmlns:rdf="http://www.w3.org/1999/02/22-rdf-syntax-ns#"
   xmlns:svg="http://www.w3.org/2000/svg"
   xmlns="http://www.w3.org/2000/svg"
   xmlns:sodipodi="http://sodipodi.sourceforge.net/DTD/sodipodi-0.dtd"
   xmlns:inkscape="http://www.inkscape.org/namespaces/inkscape"
   width="100%"
   height="100%"
   viewBox="0 0 79 107"
   version="1.1"
   xml:space="preserve"
   style="fill-rule:evenodd;clip-rule:evenodd;stroke-linecap:round;stroke-linejoin:round;stroke-miterlimit:1.5;"
   id="svg863"
   sodipodi:docname="street_marker.svg"
   inkscape:version="0.92.3 (2405546, 2018-03-11)"><metadata
     id="metadata869"><rdf:RDF><cc:Work
         rdf:about=""><dc:format>image/svg+xml</dc:format><dc:type
           rdf:resource="http://purl.org/dc/dcmitype/StillImage" /></cc:Work></rdf:RDF></metadata><defs
     id="defs867" /><sodipodi:namedview
     pagecolor="#ffffff"
     bordercolor="#666666"
     borderopacity="1"
     objecttolerance="10"
     gridtolerance="10"
     guidetolerance="10"
     inkscape:pageopacity="0"
     inkscape:pageshadow="2"
     inkscape:window-width="1366"
     inkscape:window-height="705"
     id="namedview865"
     showgrid="false"
     inkscape:zoom="5.0093458"
     inkscape:cx="39.5"
     inkscape:cy="53.5"
     inkscape:window-x="-8"
     inkscape:window-y="-8"
     inkscape:window-maximized="1"
     inkscape:current-layer="svg863" /><path
     d="M39.063,109.375c-0.001,0 -39.063,-49.219 -39.063,-70.313c0,-21.559 17.503,-39.062 39.063,-39.062c21.559,0 39.062,17.503 39.062,39.063c0,21.093 -39.063,70.312 -39.063,70.312Z"
     style="fill:#40008a;"
     id="path843" /><path
     inkscape:connector-curvature="0"
     id="path879"
     style="font-style:normal;font-weight:normal;font-size:medium;line-height:1.25;font-family:sans-serif;letter-spacing:0px;word-spacing:0px;fill:#ffffff;fill-opacity:1;stroke:none;stroke-width:2.85652995"
     d="m 43.470987,41.286022 c 0.02976,0.476087 -0.41658,0.833153 -0.862912,0.833153 H 35.34773 c -0.446333,0 -0.892666,-0.357066 -0.86291,-0.833153 v -0.119031 l 0.714133,-9.521766 c 0.02976,-0.535599 0.505843,-0.952178 1.011686,-0.952178 h 5.534526 c 0.505843,0 0.981933,0.416579 1.011689,0.952178 l 0.714133,9.521766 z m 22.584439,13.895827 c 0,-1.190222 -0.327313,-2.380444 -0.773645,-3.451642 L 52.873729,20.665447 C 52.576176,19.921558 51.772777,19.266936 50.969377,19.266936 H 40.882256 c 0.505843,0 0.981932,0.416579 1.011686,0.952178 l 0.446333,5.71306 c 0.02977,0.535599 -0.357066,0.952176 -0.892666,0.952176 h -4.939414 c -0.535599,0 -0.922422,-0.416577 -0.892666,-0.952176 l 0.446333,-5.71306 c 0.02977,-0.535599 0.505843,-0.952178 1.011689,-0.952178 H 26.98643 c -0.8034,0 -1.606799,0.654622 -1.904355,1.398511 l -12.408051,31.06476 c -0.446333,1.071198 -0.773643,2.26142 -0.773643,3.451642 0,0.862909 0.238035,2.172151 1.368752,2.172151 h 20.947888 c -0.505846,0 -0.922422,-0.416576 -0.892666,-0.952176 l 0.59511,-7.617414 c 0.02976,-0.535599 0.505843,-0.952175 1.011688,-0.952175 h 8.093501 c 0.505843,0 0.981932,0.416576 1.011685,0.952175 l 0.595113,7.617414 c 0.02976,0.5356 -0.386823,0.952176 -0.892666,0.952176 h 20.947885 c 1.130709,0 1.368755,-1.309242 1.368755,-2.172151 z" /></svg>